<svg width="406" height="415" viewBox="0 0 406 415" fill="none" xmlns="http://www.w3.org/2000/svg">
<path opacity="0.1" fill-rule="evenodd" clip-rule="evenodd" d="M205.836 391.813C264.943 403.182 293.405 368.044 323.192 336.796C351.87 306.712 382.629 281.802 399.819 225.851C434.862 111.784 314.132 30 208.433 30C142.877 30 45.3334 58.9492 9.66054 109.907C-12.1844 141.112 8.6806 181.465 17.0466 225.851C39.0742 342.718 89.8231 369.5 205.836 391.813Z" fill="#C5CCD6"/>
<g opacity="0.4" filter="url(#filter0_f)">
<path fill-rule="evenodd" clip-rule="evenodd" d="M198.746 335.451C246.709 337.391 264.456 330.94 278.944 321.025C293.432 311.109 243.519 304 199.82 304C156.121 304 111.588 310.866 120.695 321.025C129.802 331.184 150.783 333.512 198.746 335.451Z" fill="#C5CCD6"/>
</g>
<g filter="url(#filter1_d)">
<path fill-rule="evenodd" clip-rule="evenodd" d="M204.687 211.015C248.707 211.015 284.393 205.944 284.393 199.689C284.393 193.434 248.707 188.363 204.687 188.363C160.666 188.363 124.98 193.434 124.98 199.689C124.98 205.944 160.666 211.015 204.687 211.015Z" fill="#C4C4C4"/>
<path fill-rule="evenodd" clip-rule="evenodd" d="M132.596 188.724C123.452 181.071 128.492 160.463 128.492 160.463L129.674 148.271L176.596 229.543L168.361 234.298C168.361 234.298 153.044 221.782 151.113 212.61C149.182 203.437 141.741 196.377 132.596 188.724ZM163.263 171.019C161.208 159.273 140.84 153.334 140.84 153.334L129.691 148.261L176.613 229.533L184.848 224.779C184.848 224.779 181.668 205.256 174.69 198.997C167.712 192.739 165.318 182.765 163.263 171.019Z" fill="#219653"/>
<path fill-rule="evenodd" clip-rule="evenodd" d="M276.491 188.315C284.522 181.655 279.965 163.563 279.965 163.563L278.858 152.869L237.868 223.865L245.162 228.076C245.162 228.076 258.617 217.186 260.273 209.155C261.928 201.125 268.46 194.975 276.491 188.315ZM249.329 172.633C251.082 162.347 269.028 157.249 269.028 157.249L278.843 152.86L237.853 223.856L230.559 219.645C230.559 219.645 233.264 202.548 239.39 197.099C245.517 191.65 247.577 182.919 249.329 172.633Z" fill="#27AE60"/>
<g filter="url(#filter2_d)">
<path fill-rule="evenodd" clip-rule="evenodd" d="M148.948 153.797C139.986 141.138 153.457 116.919 153.457 116.919L159.144 101.991L190.691 219.728L178.619 222.963C178.619 222.963 163.505 202.14 164.21 189.972C164.914 177.803 157.909 166.456 148.948 153.797ZM193.901 141.751C195.332 126.308 171.557 112.069 171.557 112.069L159.168 101.984L190.716 219.722L202.788 216.487C202.788 216.487 205.465 190.896 198.771 180.711C192.077 170.525 192.47 157.195 193.901 141.751Z" fill="#6FCF97"/>
</g>
<g filter="url(#filter3_d)">
<path fill-rule="evenodd" clip-rule="evenodd" d="M265.74 173.213C274.701 160.554 261.23 136.335 261.23 136.335L255.544 121.407L223.996 239.145L236.068 242.379C236.068 242.379 251.182 221.556 250.477 209.388C249.773 197.22 256.778 185.872 265.74 173.213ZM220.786 161.168C219.355 145.724 243.13 131.485 243.13 131.485L255.519 121.401L223.971 239.138L211.899 235.903C211.899 235.903 209.222 210.313 215.916 200.127C222.61 189.941 222.217 176.611 220.786 161.168Z" fill="#6FCF97"/>
</g>
<g filter="url(#filter4_d)">
<path fill-rule="evenodd" clip-rule="evenodd" d="M179.035 122.956C171.488 104.542 195.31 78.1497 195.31 78.1497L206.723 61.1269L212.182 217.44L196.162 217.999C196.162 217.999 183.281 187.601 187.672 172.591C192.063 157.58 186.582 141.37 179.035 122.956ZM238.69 120.873C244.934 101.977 219.33 77.3109 219.33 77.3109L206.756 61.1257L212.215 217.439L228.235 216.879C228.235 216.879 238.964 185.657 233.536 170.989C228.109 156.322 232.446 139.768 238.69 120.873Z" fill="#27AE60"/>
</g>
<path fill-rule="evenodd" clip-rule="evenodd" d="M124.98 201.307C124.98 201.307 163.976 208.674 204.687 208.674C245.398 208.674 284.393 201.307 284.393 201.307L264.396 300.643C262.588 309.625 256.184 317.005 247.261 319.086C236.807 321.524 221.533 324.187 204.687 324.187C187.673 324.187 171.029 321.471 159.452 319.013C149.77 316.958 142.758 308.946 141.145 299.182L124.98 201.307Z" fill="#E0E0E0"/>
</g>
<g opacity="0.2" filter="url(#filter5_d)">
<rect x="111.077" y="65.3398" width="28" height="28" rx="10" transform="rotate(20 111.077 65.3398)" fill="#9EE7DA"/>
</g>
<rect opacity="0.6" x="285.105" y="228" width="26" height="26" rx="10" transform="rotate(80 285.105 228)" fill="#FFAB00"/>
<rect opacity="0.8" x="132.641" y="259" width="22" height="22" rx="8" transform="rotate(40 132.641 259)" fill="#FFAB00"/>
<rect opacity="0.7" x="287.414" y="94" width="18" height="18" rx="7" transform="rotate(70 287.414 94)" fill="#FFAB00"/>
<g opacity="0.2" filter="url(#filter6_d)">
<rect x="295.414" y="291" width="18" height="18" rx="7" transform="rotate(70 295.414 291)" fill="#6FDBBE"/>
</g>
<g opacity="0.6" filter="url(#filter7_d)">
<rect x="181.287" y="314.013" width="14" height="14" rx="5" transform="rotate(80 181.287 314.013)" fill="#6FDBBE"/>
</g>
<g opacity="0.9" filter="url(#filter8_d)">
<rect x="147.094" y="105.284" width="18" height="18" rx="7" transform="rotate(20 147.094 105.284)" fill="#FDBA31"/>
</g>
<g opacity="0.4" filter="url(#filter9_d)">
<rect x="84.5" y="163" width="14" height="14" rx="5" transform="rotate(30 84.5 163)" fill="#6FDBBE"/>
</g>
<g opacity="0.8" filter="url(#filter10_d)">
<path fill-rule="evenodd" clip-rule="evenodd" d="M94.2101 222.302C93.7383 222.13 93.2166 222.373 93.0449 222.845L91.9566 225.835L88.9667 224.747C88.4949 224.575 87.9732 224.818 87.8015 225.29C87.6298 225.762 87.873 226.283 88.3448 226.455L91.3348 227.543L90.2465 230.533C90.0748 231.005 90.3181 231.527 90.7899 231.698C91.2617 231.87 91.7833 231.627 91.9551 231.155L93.0433 228.165L96.0332 229.253C96.505 229.425 97.0267 229.182 97.1984 228.71C97.3701 228.238 97.1269 227.717 96.6551 227.545L93.6652 226.457L94.7534 223.467C94.9251 222.995 94.6819 222.473 94.2101 222.302Z" fill="#6FDBBE"/>
</g>
<g opacity="0.8" filter="url(#filter11_d)">
<path fill-rule="evenodd" clip-rule="evenodd" d="M325.5 192.5C325.5 192.048 325.134 191.682 324.682 191.682H321.818V188.818C321.818 188.366 321.452 188 321 188C320.548 188 320.182 188.366 320.182 188.818V191.682H317.318C316.866 191.682 316.5 192.048 316.5 192.5C316.5 192.952 316.866 193.318 317.318 193.318H320.182V196.182C320.182 196.634 320.548 197 321 197C321.452 197 321.818 196.634 321.818 196.182V193.318H324.682C325.134 193.318 325.5 192.952 325.5 192.5Z" fill="#6FDBBE"/>
</g>
<path d="M131.344 377.25H108.797L104.859 390H87.2812L112.312 321.75H127.781L153 390H135.328L131.344 377.25ZM112.734 364.547H127.406L120.047 340.875L112.734 364.547Z" fill="black"/>
<path d="M177.234 378.75C179.453 378.75 181.172 378.156 182.391 376.969C183.609 375.75 184.203 374.062 184.172 371.906H198.984C198.984 377.469 196.984 382.031 192.984 385.594C189.016 389.156 183.891 390.938 177.609 390.938C170.234 390.938 164.422 388.625 160.172 384C155.922 379.375 153.797 372.969 153.797 364.781V364.125C153.797 359 154.734 354.484 156.609 350.578C158.516 346.641 161.25 343.625 164.812 341.531C168.375 339.406 172.594 338.344 177.469 338.344C184.062 338.344 189.297 340.172 193.172 343.828C197.047 347.484 198.984 352.438 198.984 358.688H184.172C184.172 356.062 183.531 354.047 182.25 352.641C180.969 351.234 179.25 350.531 177.094 350.531C173 350.531 170.609 353.141 169.922 358.359C169.703 360.016 169.594 362.297 169.594 365.203C169.594 370.297 170.203 373.828 171.422 375.797C172.641 377.766 174.578 378.75 177.234 378.75Z" fill="black"/>
<path d="M222.562 326.672V339.281H230.906V350.25H222.562V373.453C222.562 375.359 222.906 376.688 223.594 377.438C224.281 378.188 225.641 378.562 227.672 378.562C229.234 378.562 230.547 378.469 231.609 378.281V389.578C228.766 390.484 225.797 390.938 222.703 390.938C217.266 390.938 213.25 389.656 210.656 387.094C208.062 384.531 206.766 380.641 206.766 375.422V350.25H200.297V339.281H206.766V326.672H222.562Z" fill="black"/>
<path d="M252.328 390H236.484V339.281H252.328V390ZM235.547 326.203C235.547 323.953 236.359 322.109 237.984 320.672C239.609 319.234 241.719 318.516 244.312 318.516C246.906 318.516 249.016 319.234 250.641 320.672C252.266 322.109 253.078 323.953 253.078 326.203C253.078 328.453 252.266 330.297 250.641 331.734C249.016 333.172 246.906 333.891 244.312 333.891C241.719 333.891 239.609 333.172 237.984 331.734C236.359 330.297 235.547 328.453 235.547 326.203Z" fill="black"/>
<path d="M318.328 390H301.969L277.781 347.531V390H261.328V321.75H277.781L301.922 364.219V321.75H318.328V390Z" fill="black"/>
<defs>
<filter id="filter0_f" x="81.4441" y="265.944" width="238.112" height="107.907" filterUnits="userSpaceOnUse" color-interpolation-filters="sRGB">
<feFlood flood-opacity="0" result="BackgroundImageFix"/>
<feBlend mode="normal" in="SourceGraphic" in2="BackgroundImageFix" result="shape"/>
<feGaussianBlur stdDeviation="19.028" result="effect1_foregroundBlur"/>
</filter>
<filter id="filter1_d" x="38.7245" y="0.0422974" width="329.26" height="414.145" filterUnits="userSpaceOnUse" color-interpolation-filters="sRGB">
<feFlood flood-opacity="0" result="BackgroundImageFix"/>
<feColorMatrix in="SourceAlpha" type="matrix" values="0 0 0 0 0 0 0 0 0 0 0 0 0 0 0 0 0 0 127 0"/>
<feOffset dy="15"/>
<feGaussianBlur stdDeviation="37.5"/>
<feColorMatrix type="matrix" values="0 0 0 0 0.149603 0 0 0 0 0.151123 0 0 0 0 0.168607 0 0 0 0.06 0"/>
<feBlend mode="normal" in2="BackgroundImageFix" result="effect1_dropShadow"/>
<feBlend mode="normal" in="SourceGraphic" in2="effect1_dropShadow" result="shape"/>
</filter>
<filter id="filter2_d" x="91.7638" y="79.7198" width="150.332" height="202.273" filterUnits="userSpaceOnUse" color-interpolation-filters="sRGB">
<feFlood flood-opacity="0" result="BackgroundImageFix"/>
<feColorMatrix in="SourceAlpha" type="matrix" values="0 0 0 0 0 0 0 0 0 0 0 0 0 0 0 0 0 0 127 0"/>
<feOffset dx="-8" dy="20"/>
<feGaussianBlur stdDeviation="18"/>
<feColorMatrix type="matrix" values="0 0 0 0 0 0 0 0 0 0 0 0 0 0 0 0 0 0 0.120952 0"/>
<feBlend mode="normal" in2="BackgroundImageFix" result="effect1_dropShadow"/>
<feBlend mode="normal" in="SourceGraphic" in2="effect1_dropShadow" result="shape"/>
</filter>
<filter id="filter3_d" x="156.591" y="99.136" width="150.332" height="202.273" filterUnits="userSpaceOnUse" color-interpolation-filters="sRGB">
<feFlood flood-opacity="0" result="BackgroundImageFix"/>
<feColorMatrix in="SourceAlpha" type="matrix" values="0 0 0 0 0 0 0 0 0 0 0 0 0 0 0 0 0 0 127 0"/>
<feOffset dx="-8" dy="20"/>
<feGaussianBlur stdDeviation="18"/>
<feColorMatrix type="matrix" values="0 0 0 0 0 0 0 0 0 0 0 0 0 0 0 0 0 0 0.120952 0"/>
<feBlend mode="normal" in2="BackgroundImageFix" result="effect1_dropShadow"/>
<feBlend mode="normal" in="SourceGraphic" in2="effect1_dropShadow" result="shape"/>
</filter>
<filter id="filter4_d" x="131.697" y="44.0423" width="139.543" height="230.481" filterUnits="userSpaceOnUse" color-interpolation-filters="sRGB">
<feFlood flood-opacity="0" result="BackgroundImageFix"/>
<feColorMatrix in="SourceAlpha" type="matrix" values="0 0 0 0 0 0 0 0 0 0 0 0 0 0 0 0 0 0 127 0"/>
<feOffset dx="-8" dy="20"/>
<feGaussianBlur stdDeviation="18"/>
<feColorMatrix type="matrix" values="0 0 0 0 0 0 0 0 0 0 0 0 0 0 0 0 0 0 0.0116621 0"/>
<feBlend mode="normal" in2="BackgroundImageFix" result="effect1_dropShadow"/>
<feBlend mode="normal" in="SourceGraphic" in2="effect1_dropShadow" result="shape"/>
</filter>
<filter id="filter5_d" x="46.5" y="25.3398" width="145.888" height="145.888" filterUnits="userSpaceOnUse" color-interpolation-filters="sRGB">
<feFlood flood-opacity="0" result="BackgroundImageFix"/>
<feColorMatrix in="SourceAlpha" type="matrix" values="0 0 0 0 0 0 0 0 0 0 0 0 0 0 0 0 0 0 127 0"/>
<feOffset dy="15"/>
<feGaussianBlur stdDeviation="27.5"/>
<feColorMatrix type="matrix" values="0 0 0 0 0.615686 0 0 0 0 0.639216 0 0 0 0 0.705882 0 0 0 0.2 0"/>
<feBlend mode="normal" in2="BackgroundImageFix" result="effect1_dropShadow"/>
<feBlend mode="normal" in="SourceGraphic" in2="effect1_dropShadow" result="shape"/>
</filter>
<filter id="filter6_d" x="223.5" y="251" width="133.071" height="133.071" filterUnits="userSpaceOnUse" color-interpolation-filters="sRGB">
<feFlood flood-opacity="0" result="BackgroundImageFix"/>
<feColorMatrix in="SourceAlpha" type="matrix" values="0 0 0 0 0 0 0 0 0 0 0 0 0 0 0 0 0 0 127 0"/>
<feOffset dy="15"/>
<feGaussianBlur stdDeviation="27.5"/>
<feColorMatrix type="matrix" values="0 0 0 0 0.615686 0 0 0 0 0.639216 0 0 0 0 0.705882 0 0 0 0.2 0"/>
<feBlend mode="normal" in2="BackgroundImageFix" result="effect1_dropShadow"/>
<feBlend mode="normal" in="SourceGraphic" in2="effect1_dropShadow" result="shape"/>
</filter>
<filter id="filter7_d" x="112.5" y="274.013" width="126.218" height="126.218" filterUnits="userSpaceOnUse" color-interpolation-filters="sRGB">
<feFlood flood-opacity="0" result="BackgroundImageFix"/>
<feColorMatrix in="SourceAlpha" type="matrix" values="0 0 0 0 0 0 0 0 0 0 0 0 0 0 0 0 0 0 127 0"/>
<feOffset dy="15"/>
<feGaussianBlur stdDeviation="27.5"/>
<feColorMatrix type="matrix" values="0 0 0 0 0.615686 0 0 0 0 0.639216 0 0 0 0 0.705882 0 0 0 0.2 0"/>
<feBlend mode="normal" in2="BackgroundImageFix" result="effect1_dropShadow"/>
<feBlend mode="normal" in="SourceGraphic" in2="effect1_dropShadow" result="shape"/>
</filter>
<filter id="filter8_d" x="85.9379" y="65.2837" width="133.071" height="133.071" filterUnits="userSpaceOnUse" color-interpolation-filters="sRGB">
<feFlood flood-opacity="0" result="BackgroundImageFix"/>
<feColorMatrix in="SourceAlpha" type="matrix" values="0 0 0 0 0 0 0 0 0 0 0 0 0 0 0 0 0 0 127 0"/>
<feOffset dy="15"/>
<feGaussianBlur stdDeviation="27.5"/>
<feColorMatrix type="matrix" values="0 0 0 0 0.615686 0 0 0 0 0.639216 0 0 0 0 0.705882 0 0 0 0.2 0"/>
<feBlend mode="normal" in2="BackgroundImageFix" result="effect1_dropShadow"/>
<feBlend mode="normal" in="SourceGraphic" in2="effect1_dropShadow" result="shape"/>
</filter>
<filter id="filter9_d" x="22.5" y="123" width="129.124" height="129.124" filterUnits="userSpaceOnUse" color-interpolation-filters="sRGB">
<feFlood flood-opacity="0" result="BackgroundImageFix"/>
<feColorMatrix in="SourceAlpha" type="matrix" values="0 0 0 0 0 0 0 0 0 0 0 0 0 0 0 0 0 0 127 0"/>
<feOffset dy="15"/>
<feGaussianBlur stdDeviation="27.5"/>
<feColorMatrix type="matrix" values="0 0 0 0 0.615686 0 0 0 0 0.639216 0 0 0 0 0.705882 0 0 0 0.2 0"/>
<feBlend mode="normal" in2="BackgroundImageFix" result="effect1_dropShadow"/>
<feBlend mode="normal" in="SourceGraphic" in2="effect1_dropShadow" result="shape"/>
</filter>
<filter id="filter10_d" x="31.0914" y="180.591" width="122.817" height="122.817" filterUnits="userSpaceOnUse" color-interpolation-filters="sRGB">
<feFlood flood-opacity="0" result="BackgroundImageFix"/>
<feColorMatrix in="SourceAlpha" type="matrix" values="0 0 0 0 0 0 0 0 0 0 0 0 0 0 0 0 0 0 127 0"/>
<feOffset dy="15"/>
<feGaussianBlur stdDeviation="27.5"/>
<feColorMatrix type="matrix" values="0 0 0 0 0.615686 0 0 0 0 0.639216 0 0 0 0 0.705882 0 0 0 0.2 0"/>
<feBlend mode="normal" in2="BackgroundImageFix" result="effect1_dropShadow"/>
<feBlend mode="normal" in="SourceGraphic" in2="effect1_dropShadow" result="shape"/>
</filter>
<filter id="filter11_d" x="261.5" y="148" width="119" height="119" filterUnits="userSpaceOnUse" color-interpolation-filters="sRGB">
<feFlood flood-opacity="0" result="BackgroundImageFix"/>
<feColorMatrix in="SourceAlpha" type="matrix" values="0 0 0 0 0 0 0 0 0 0 0 0 0 0 0 0 0 0 127 0"/>
<feOffset dy="15"/>
<feGaussianBlur stdDeviation="27.5"/>
<feColorMatrix type="matrix" values="0 0 0 0 0.615686 0 0 0 0 0.639216 0 0 0 0 0.705882 0 0 0 0.2 0"/>
<feBlend mode="normal" in2="BackgroundImageFix" result="effect1_dropShadow"/>
<feBlend mode="normal" in="SourceGraphic" in2="effect1_dropShadow" result="shape"/>
</filter>
</defs>
</svg>
