<svg width="280" height="280" viewBox="0 0 280 280" fill="none" xmlns="http://www.w3.org/2000/svg">
<g opacity="0.7">
<path d="M273.984 140C273.995 152.345 272.3 164.633 268.948 176.515L265.103 176.903C264.791 176.93 264.474 176.958 264.168 176.969L260.92 177.116C256.697 177.293 252.609 178.655 249.123 181.045C245.638 183.436 242.896 186.759 241.21 190.635L240.379 192.527C238.992 195.686 236.716 198.373 233.828 200.26C230.94 202.147 227.565 203.152 224.115 203.153H210.295C208.702 203.158 207.164 202.568 205.983 201.499C204.802 200.43 204.062 198.958 203.908 197.373L203.356 191.849C203.028 188.476 201.94 185.222 200.172 182.33C198.405 179.439 196.004 176.987 193.151 175.159C192.037 174.442 191.121 173.458 190.487 172.294C189.853 171.131 189.523 169.828 189.525 168.503V162.969C189.526 161.433 189.853 159.915 190.484 158.514C191.116 157.114 192.038 155.865 193.189 154.848L216.792 134.001C220.117 131.053 222.528 127.215 223.74 122.94C224.953 118.665 224.916 114.133 223.634 109.878C222.301 105.488 219.724 101.579 216.214 98.6252C212.704 95.6713 208.412 93.7995 203.859 93.2367L201.474 92.9414C198.631 92.5933 196.016 91.2089 194.13 89.0531C193.231 88.031 192.671 86.7554 192.527 85.4019C192.383 84.0485 192.662 82.6836 193.326 81.4953L198.27 73.0406C204.381 62.6078 211.586 52.855 219.762 43.9469L225.094 36.5094C240.396 49.0645 252.719 64.8609 261.174 82.758C269.629 100.655 274.005 120.206 273.984 140Z" fill="#27AE60"/>
<path d="M265.103 176.903L268.948 176.515C253.05 232.766 201.338 273.984 140 273.984C66.0023 273.984 6.01562 213.998 6.01562 140C6.01562 135.784 6.20703 131.616 6.58984 127.498L8.20859 127.652L10.0352 127.291C14.3639 126.444 18.849 126.969 22.8653 128.792C26.8815 130.615 30.2289 133.646 32.4406 137.463C33.4844 139.251 34.7812 140.879 36.2906 142.297L45.8172 151.266C47.5202 152.866 49.5894 154.024 51.8438 154.64L52.9539 154.946C56.1787 155.832 59.1191 157.538 61.4891 159.897C63.8591 162.257 65.5778 165.189 66.4781 168.41L71.5805 186.834C72.1972 189.047 73.2291 191.122 74.6211 192.948L90.0922 213.232C92.023 215.765 93.307 218.731 93.8328 221.873L98.0383 247.105C98.1721 248.011 98.6356 248.834 99.3399 249.419C99.843 249.823 100.446 250.084 101.085 250.173C101.725 250.263 102.376 250.178 102.971 249.927C104.165 249.428 105.2 248.613 105.966 247.57C106.731 246.526 107.197 245.293 107.313 244.005C107.823 238.847 109.886 233.965 113.23 230.005L117.715 224.618C118.508 223.664 119.103 222.561 119.465 221.375L124.075 206.434C125.434 202.019 128.133 198.136 131.797 195.322L145.502 184.8C146.497 184.058 147.174 182.965 147.394 181.743C147.505 181.073 147.468 180.387 147.286 179.734C147.104 179.08 146.78 178.474 146.338 177.959L137.216 167.223C136.67 166.584 136.15 165.916 135.663 165.233L128.685 155.515C124.83 150.134 118.661 146.568 112.038 146.743C111.373 146.759 110.717 146.586 110.146 146.245L95.8945 137.692C93.8445 136.469 91.5135 135.796 89.127 135.737C86.7405 135.679 84.3793 136.237 82.2719 137.359L74.7633 141.384C71.4761 143.145 67.6442 143.596 64.0377 142.648C60.4312 141.699 57.3173 139.421 55.3219 136.27L48.0266 124.753C46.3751 122.143 45.5208 119.109 45.5684 116.021C45.616 112.933 46.5634 109.926 48.2945 107.368C50.1485 104.615 52.7324 102.433 55.7567 101.067C58.7809 99.6999 62.1261 99.2023 65.4172 99.6297L76.3602 101.019C78.2699 101.282 80.2148 100.977 81.9532 100.144C83.6916 99.311 85.1469 97.9854 86.1383 96.332C87.8468 93.3929 90.3839 91.0228 93.4323 89.518C96.4808 88.0132 99.9052 87.4406 103.277 87.8719L108.063 88.4844C109.741 88.6946 111.446 88.4637 113.008 87.8144C114.57 87.1652 115.936 86.1201 116.971 84.782L121.188 79.3133C123.047 76.9144 124.091 73.9844 124.167 70.9504C124.244 67.9165 123.349 64.9374 121.614 62.4477L112.52 49.3391C109.034 44.3081 104.491 40.0993 99.2086 37.007C97.8205 36.1971 96.4803 35.3079 95.1945 34.3438L87.5328 28.5906L77.8313 21.2844C101.161 9.08208 127.566 4.01889 153.755 6.72641C179.943 9.43393 204.754 19.7923 225.094 36.5094L219.762 43.9469C211.586 52.855 204.381 62.6078 198.27 73.0406L193.326 81.4953C192.662 82.6837 192.383 84.0485 192.527 85.4019C192.671 86.7554 193.231 88.031 194.13 89.0531C196.016 91.2089 198.631 92.5933 201.474 92.9414L203.859 93.2367C208.412 93.7995 212.704 95.6713 216.214 98.6253C219.724 101.579 222.301 105.488 223.634 109.878C224.916 114.133 224.953 118.665 223.74 122.94C222.528 127.215 220.117 131.053 216.792 134.001L193.189 154.848C192.038 155.865 191.116 157.114 190.484 158.514C189.853 159.915 189.526 161.433 189.525 162.969V168.503C189.522 169.828 189.853 171.131 190.487 172.294C191.121 173.458 192.037 174.443 193.151 175.159C196.004 176.987 198.405 179.439 200.172 182.33C201.94 185.222 203.028 188.476 203.355 191.849L203.908 197.373C204.062 198.958 204.802 200.43 205.983 201.499C207.164 202.568 208.702 203.158 210.295 203.153H224.115C227.565 203.152 230.94 202.147 233.828 200.26C236.716 198.373 238.992 195.686 240.379 192.527L241.21 190.635C242.896 186.759 245.638 183.436 249.123 181.045C252.609 178.655 256.697 177.293 260.92 177.116L264.168 176.969C264.474 176.958 264.791 176.93 265.103 176.903Z" fill="#2D9CDB"/>
<path d="M146.338 177.959C146.78 178.474 147.104 179.08 147.286 179.734C147.468 180.388 147.505 181.073 147.394 181.743C147.174 182.965 146.497 184.058 145.502 184.8L131.797 195.322C128.133 198.136 125.434 202.019 124.075 206.434L119.465 221.375C119.103 222.561 118.508 223.664 117.715 224.618L113.23 230.005C109.886 233.965 107.823 238.847 107.313 244.005C107.197 245.294 106.731 246.526 105.966 247.57C105.2 248.613 104.165 249.428 102.971 249.927C102.376 250.178 101.725 250.263 101.085 250.173C100.446 250.084 99.843 249.823 99.3399 249.419C98.6356 248.835 98.1721 248.011 98.0383 247.106L93.8328 221.873C93.307 218.731 92.023 215.765 90.0922 213.232L74.6211 192.948C73.2291 191.122 72.1972 189.047 71.5805 186.834L66.4781 168.41C65.5778 165.189 63.8591 162.257 61.4891 159.897C59.1191 157.538 56.1787 155.832 52.9539 154.946L51.8438 154.64C49.5894 154.024 47.5202 152.866 45.8172 151.266L36.2906 142.297C34.7812 140.879 33.4844 139.251 32.4406 137.463C30.2289 133.646 26.8815 130.615 22.8653 128.792C18.849 126.969 14.3639 126.444 10.0352 127.291L8.20859 127.652L6.58984 127.498C8.67435 105.26 16.2832 83.8957 28.725 65.3462C41.1668 46.7968 58.0469 31.6506 77.8313 21.2844L87.5328 28.5906L95.1945 34.3438C96.4803 35.3079 97.8205 36.1971 99.2086 37.0071C104.491 40.0993 109.034 44.3081 112.52 49.3391L121.614 62.4477C123.349 64.9374 124.244 67.9165 124.167 70.9505C124.091 73.9844 123.047 76.9144 121.188 79.3133L116.971 84.7821C115.936 86.1201 114.57 87.1652 113.008 87.8145C111.446 88.4637 109.741 88.6946 108.063 88.4844L103.277 87.8719C99.9052 87.4407 96.4808 88.0132 93.4323 89.518C90.3839 91.0228 87.8468 93.3929 86.1383 96.3321C85.1469 97.9854 83.6916 99.311 81.9532 100.144C80.2148 100.977 78.2699 101.282 76.3602 101.019L65.4172 99.6297C62.1261 99.2023 58.7809 99.6999 55.7567 101.067C52.7324 102.433 50.1485 104.615 48.2945 107.368C46.5634 109.926 45.616 112.933 45.5684 116.021C45.5208 119.109 46.3751 122.143 48.0266 124.753L55.3219 136.27C57.3173 139.421 60.4312 141.699 64.0377 142.648C67.6442 143.596 71.4761 143.145 74.7633 141.384L82.2719 137.359C84.3793 136.237 86.7405 135.679 89.127 135.737C91.5135 135.796 93.8445 136.469 95.8945 137.692L110.146 146.245C110.717 146.586 111.373 146.759 112.038 146.743C118.661 146.568 124.83 150.134 128.685 155.515L135.663 165.233C136.15 165.916 136.67 166.584 137.216 167.223L146.338 177.959Z" fill="#27AE60"/>
<path d="M140 6.01562C118.345 5.98309 97.0075 11.2236 77.8313 21.2844L87.5329 28.5906L95.1946 34.3437C96.4485 35.2825 97.7541 36.1501 99.1053 36.9425L99.7068 36.5969C119.015 26.5024 140.492 21.2621 162.279 21.3288C184.067 21.3955 205.511 26.7672 224.757 36.9797L225.094 36.5094C201.144 16.7494 171.05 5.965 140 6.01562Z" fill="#56CCF2"/>
<path d="M27.8906 155.313C27.8906 151.096 28.082 146.929 28.4649 142.811L29.7259 133.783C27.2778 131.101 24.18 129.094 20.7311 127.957C17.2822 126.82 13.5986 126.59 10.0352 127.291L8.2086 127.652L6.58985 127.498C6.21251 131.616 6.0211 135.784 6.01563 140C6.00759 163.824 12.3543 187.219 24.4014 207.772C36.4485 228.326 53.7599 245.294 74.5506 256.927C59.898 244.363 48.1402 228.774 40.0856 211.233C32.031 193.692 27.8707 174.614 27.8906 155.313V155.313Z" fill="#56CCF2"/>
<path opacity="0.7" d="M29.6302 133.679C32.9735 113.292 40.9811 93.954 53.0285 77.1718C65.0758 60.3897 80.8372 46.6175 99.0834 36.9294C97.7401 36.1403 96.4419 35.2771 95.1945 34.3438L87.5328 28.5906L77.8313 21.2844C58.0469 31.6506 41.1668 46.7967 28.725 65.3462C16.2832 83.8957 8.67435 105.26 6.58984 127.498L8.20859 127.652L10.0352 127.291C13.575 126.595 17.234 126.817 20.6639 127.935C24.0938 129.053 27.1805 131.03 29.6302 133.679Z" fill="#6FCF97"/>
</g>
<path d="M41.5781 177.484H43.0537L43.4891 176.075L46.9912 164.734H66.5921L70.1379 176.081L70.5765 177.484H72.0469H89.7188H92.5899L91.5948 174.791L66.376 106.541L65.8932 105.234H64.5H49.0312H47.6345L47.1536 106.546L22.1223 174.796L21.1362 177.484H24H41.5781ZM114.188 121.828C109.018 121.828 104.434 122.957 100.512 125.295C96.5912 127.601 93.5948 130.922 91.528 135.191L91.5251 135.197C89.4988 139.418 88.5156 144.239 88.5156 149.609V150.266C88.5156 158.798 90.7361 165.743 95.418 170.838C100.113 175.947 106.5 178.422 114.328 178.422C121.008 178.422 126.637 176.517 131.036 172.57C135.478 168.612 137.703 163.498 137.703 157.391V155.391H135.703H120.891H118.861L118.891 157.42C118.916 159.172 118.445 160.284 117.704 161.03C116.962 161.748 115.807 162.234 113.953 162.234C111.869 162.234 110.636 161.513 109.841 160.229C108.944 158.779 108.312 155.758 108.312 150.688C108.312 147.815 108.421 145.634 108.623 144.106L108.623 144.105C108.938 141.715 109.611 140.211 110.424 139.324C111.18 138.499 112.23 138.016 113.812 138.016C115.489 138.016 116.641 138.539 117.49 139.472C118.327 140.39 118.891 141.855 118.891 144.172V146.172H120.891H135.703H137.703V144.172C137.703 141.885 137.459 139.736 136.964 137.734H137.016H141.484V160.906C141.484 166.427 142.857 170.926 145.969 174.001C149.087 177.081 153.714 178.422 159.422 178.422C162.714 178.422 165.888 177.939 168.935 176.968L170.328 176.524V175.062V163.766V161.382L167.981 161.796C167.071 161.957 165.883 162.047 164.391 162.047C162.429 162.047 161.858 161.648 161.787 161.57C161.63 161.399 161.281 160.73 161.281 158.938V137.734H167.625H169.625V135.734V124.766V122.766H167.625H161.281V112.156V110.156H159.281H143.484H141.484V112.156V122.766H137.016H135.016V124.766V132.692C134.038 130.913 132.789 129.298 131.263 127.858C126.934 123.773 121.164 121.828 114.188 121.828ZM189.047 177.484H191.047V175.484V124.766V122.766H189.047H173.203H171.203V124.766V175.484V177.484H173.203H189.047ZM255.047 177.484H257.047V175.484V107.234V105.234H255.047H238.641H236.641V107.234V142.138L216.239 106.246L215.664 105.234H214.5H198.047H196.047V107.234V175.484V177.484H198.047H214.5H216.5V175.484V140.568L236.95 176.474L237.525 177.484H238.688H255.047ZM61.4088 148.031H52.1642L56.7717 133.116L61.4088 148.031ZM173.378 104.658C171.306 106.491 170.266 108.889 170.266 111.688C170.266 114.486 171.306 116.884 173.378 118.717C175.437 120.539 178.05 121.375 181.031 121.375C184.013 121.375 186.625 120.539 188.685 118.717C190.756 116.884 191.797 114.486 191.797 111.688C191.797 108.889 190.756 106.491 188.685 104.658C186.625 102.836 184.013 102 181.031 102C178.05 102 175.437 102.836 173.378 104.658Z" fill="black" stroke="#F2F2F2" stroke-width="4"/>
</svg>
